Coordinates
version=1
nRows=13
nColumns=40
inDegrees=yes
endheader
time	pelvis_tilt	pelvis_list	pelvis_rotation	pelvis_tx	pelvis_ty	pelvis_tz	hip_flexion_r	hip_adduction_r	hip_rotation_r	knee_angle_r	knee_angle_r_beta	ankle_angle_r	subtalar_angle_r	mtp_angle_r	hip_flexion_l	hip_adduction_l	hip_rotation_l	knee_angle_l	knee_angle_l_beta	ankle_angle_l	subtalar_angle_l	mtp_angle_l	lumbar_extension	lumbar_bending	lumbar_rotation	arm_flex_r	arm_add_r	arm_rot_r	elbow_flex_r	pro_sup_r	wrist_flex_r	wrist_dev_r	arm_flex_l	arm_add_l	arm_rot_l	elbow_flex_l	pro_sup_l	wrist_flex_l	wrist_dev_l
1760624808.61659408	     18.48893446	      1.35274649	      1.25469352	      0.18821722	      0.86253285	      0.00921990	     80.00000000	     -7.00000000	      0.00000000	     80.00000000	      1.39626340	      0.00000000	      0.00000000	      0.00000000	     80.00000000	     -7.00000000	      0.00000000	     80.00000000	      1.39626340	      0.00000000	      0.00000000	      0.00000000	    -28.48897460	     -5.98785793	     -4.33325119	     10.72108964	      0.05535883	     30.63702945	      0.00000000	      0.00000000	    -70.00000021	    -24.99999983	    -12.59112111	     10.59352480	    -55.68185723	     64.10685078	    169.45614341	     51.83156411	     35.00000010
1760624808.62659407	     18.52001482	      1.35435329	      1.25218797	      0.18863217	      0.86260788	      0.00929560	     80.00000000	     -7.00000000	      0.00000000	     80.00000000	      1.39626340	      0.00000000	      0.00000000	      0.00000000	     80.00000000	     -7.00000000	      0.00000000	     80.00000000	      1.39626340	      0.00000000	      0.00000000	      0.00000000	    -28.47685078	     -5.99816257	     -4.31586104	     10.65408709	      0.05451966	     30.62531793	      0.00000000	      0.00000000	    -70.00000021	    -24.99999983	    -12.72286025	     10.55888068	    -55.79793340	     64.02875899	    169.45562225	     51.87117784	     35.00000010
1760624808.63659406	     18.49904048	      1.35928551	      1.26774409	      0.18837587	      0.86261074	      0.00918987	     80.00000000	     -7.00000000	      0.00000000	     80.00000000	      1.39626340	      0.00000000	      0.00000000	      0.00000000	     80.00000000	     -7.00000000	      0.00000000	     80.00000000	      1.39626340	      0.00000000	      0.00000000	      0.00000000	    -28.49941976	     -6.00185674	     -4.29433443	     10.65358104	      0.04693890	     30.62454009	      0.00000000	      0.00000000	    -70.00000021	    -24.99999983	    -12.75314121	     10.54560111	    -55.81886401	     64.01799236	    169.45534501	     51.87549141	     35.00000010
1760624808.64659405	     18.42197339	      1.31451980	      1.17292516	      0.18848007	      0.86235859	      0.00956189	     80.00000000	     -7.00000000	      0.00000000	     80.00000000	      1.39626340	      0.00000000	      0.00000000	      0.00000000	     80.00000000	     -7.00000000	      0.00000000	     80.00000000	      1.39626340	      0.00000000	      0.00000000	      0.00000000	    -28.33744588	     -6.04395658	     -3.93245518	     10.62332541	     -0.04578544	     28.97208160	      0.00000000	      0.00000000	    -70.00000021	    -24.99999983	    -12.29348148	     10.63831042	    -56.94718485	     64.01716672	    169.43471393	     60.31212770	     35.00000010
1760624808.65659404	     18.40993062	      1.32022328	      1.19257096	      0.18832920	      0.86234417	      0.00950650	     80.00000000	     -7.00000000	      0.00000000	     80.00000000	      1.39626340	      0.00000000	      0.00000000	      0.00000000	     80.00000000	     -7.00000000	      0.00000000	     80.00000000	      1.39626340	      0.00000000	      0.00000000	      0.00000000	    -28.35632112	     -6.04998560	     -3.91484692	     10.61240592	     -0.06395610	     28.97744734	      0.00000000	      0.00000000	    -70.00000021	    -24.99999983	    -12.33432401	     10.59760469	    -56.97858912	     64.01432634	    169.44058629	     60.31310632	     35.00000010
1760624808.66659403	     18.39808949	      1.33124219	      1.21039350	      0.18816199	      0.86243050	      0.00943862	     80.00000000	     -7.00000000	      0.00000000	     80.00000000	      1.39626340	      0.00000000	      0.00000000	      0.00000000	     80.00000000	     -7.00000000	      0.00000000	     80.00000000	      1.39626340	      0.00000000	      0.00000000	      0.00000000	    -28.37176927	     -6.04943862	     -3.89247416	     10.60717770	     -0.06987555	     28.97966551	      0.00000000	      0.00000000	    -70.00000021	    -24.99999983	    -12.37227992	     10.57086934	    -57.00375324	     64.00953977	    169.44342977	     60.31373991	     35.00000010
1760624808.67659402	     18.43686641	      1.32820024	      1.23093714	      0.18853755	      0.86244796	      0.00965348	     80.00000000	     -7.00000000	      0.00000000	     80.00000000	      1.39626340	      0.00000000	      0.00000000	      0.00000000	     80.00000000	     -7.00000000	      0.00000000	     80.00000000	      1.39626340	      0.00000000	      0.00000000	      0.00000000	    -28.35843619	     -6.07424496	     -3.87444261	     10.52565017	     -0.04166731	     28.98775152	      0.00000000	      0.00000000	    -70.00000021	    -24.99999983	    -12.45441290	     10.48514339	    -57.09341975	     64.00013176	    169.46382731	     60.31995923	     35.00000010
1760624808.68659401	     18.41713287	      1.34316810	      1.24315268	      0.18836665	      0.86242218	      0.00945543	     80.00000000	     -7.00000000	      0.00000000	     80.00000000	      1.39626340	      0.00000000	      0.00000000	      0.00000000	     80.00000000	     -7.00000000	      0.00000000	     80.00000000	      1.39626340	      0.00000000	      0.00000000	      0.00000000	    -28.37855640	     -6.06915241	     -3.85092042	     10.53089871	     -0.06300494	     28.99053495	      0.00000000	      0.00000000	    -70.00000021	    -24.99999983	    -12.48297057	     10.45526502	    -57.11993577	     64.00149860	    169.46700739	     60.32117849	     35.00000010
1760624808.69659400	     18.40832104	      1.35062908	      1.25253237	      0.18825593	      0.86242075	      0.00937129	     80.00000000	     -7.00000000	      0.00000000	     80.00000000	      1.39626340	      0.00000000	      0.00000000	      0.00000000	     80.00000000	     -7.00000000	      0.00000000	     80.00000000	      1.39626340	      0.00000000	      0.00000000	      0.00000000	    -28.38780084	     -6.07132953	     -3.83182645	     10.52476855	     -0.08439710	     28.99264425	      0.00000000	      0.00000000	    -70.00000021	    -24.99999983	    -12.50501697	     10.40779711	    -57.15798078	     64.00685594	    169.47159461	     60.32316868	     35.00000010
1760624808.70659399	     18.41041501	      1.46020641	      1.17352814	      0.18838012	      0.86238374	      0.00947971	     80.00000000	     -7.00000000	      0.00000000	     80.00000000	      1.39626340	      0.00000000	      0.00000000	      0.00000000	     80.00000000	     -7.00000000	      0.00000000	     80.00000000	      1.39626340	      0.00000000	      0.00000000	      0.00000000	    -28.35114057	     -6.25366309	     -3.71074092	     10.44239910	     -0.06830806	     29.02852469	      0.00000000	      0.00000000	    -70.00000021	    -24.99999983	    -12.34440124	     10.60319147	    -57.92052097	     64.17346908	    169.69751868	     60.47688174	     35.00000010
1760624808.71659398	     18.41821737	      1.46105034	      1.18157819	      0.18843702	      0.86235721	      0.00940657	     80.00000000	     -7.00000000	      0.00000000	     80.00000000	      1.39626340	      0.00000000	      0.00000000	      0.00000000	     80.00000000	     -7.00000000	      0.00000000	     80.00000000	      1.39626340	      0.00000000	      0.00000000	      0.00000000	    -28.35352125	     -6.24947124	     -3.69890688	     10.42708854	     -0.09166114	     29.02892336	      0.00000000	      0.00000000	    -70.00000021	    -24.99999983	    -12.37965881	     10.55634825	    -57.94539397	     64.16713795	    169.69981168	     60.48126018	     35.00000010
1760624808.72659397	     18.40661759	      1.47410425	      1.19036606	      0.18824304	      0.86243326	      0.00924276	     80.00000000	     -7.00000000	      0.00000000	     80.00000000	      1.39626340	      0.00000000	      0.00000000	      0.00000000	     80.00000000	     -7.00000000	      0.00000000	     80.00000000	      1.39626340	      0.00000000	      0.00000000	      0.00000000	    -28.36479254	     -6.24080948	     -3.68257482	     10.42747234	     -0.09165199	     29.02886227	      0.00000000	      0.00000000	    -70.00000021	    -24.99999983	    -12.40094529	     10.53773464	    -57.95998034	     64.16383431	    169.70038508	     60.48303941	     35.00000010
1760624808.73659396	     18.43553818	      1.46385731	      1.19722420	      0.18847862	      0.86239190	      0.00936674	     80.00000000	     -7.00000000	      0.00000000	     80.00000000	      1.39626340	      0.00000000	      0.00000000	      0.00000000	     80.00000000	     -7.00000000	      0.00000000	     80.00000000	      1.39626340	      0.00000000	      0.00000000	      0.00000000	    -28.35340722	     -6.23985359	     -3.66766247	     10.38303980	     -0.08696142	     29.02681002	      0.00000000	      0.00000000	    -70.00000021	    -24.99999983	    -12.46000624	     10.47013724	    -58.01377597	     64.15256764	    169.70554912	     60.49398132	     35.00000010
